<svg
  width="292"
  height="64"
  viewBox="0 0 292 64"
  fill="none"
  xmlns="http://www.w3.org/2000/svg"
>
  <title>React Principles</title>
  <style>
    .logo-bg { fill: #f8fafc; }
    .logo-wordmark { fill: #0f172a; }
    @media (prefers-color-scheme: dark) {
      .logo-bg { fill: #0f172a; }
      .logo-wordmark { fill: #f8fafc; }
    }
  </style>
  <g clip-path="url(#clip0)">
    <rect
      class="logo-bg"
      x="1"
      y="1"
      width="62"
      height="62"
      rx="19"
      stroke="#DDD6FE"
      stroke-width="2"
    />
    <g transform="translate(10 7.9375) scale(0.6875)">
      <path
        d="M57 14C57 18.4183 53.4183 22 49 22H19C14.5817 22 11 18.4183 11 14C11 9.58172 14.5817 6 19 6H49C53.4183 6 57 9.58172 57 14Z"
        fill="#A77BFF"
      />
      <path
        d="M24 35C24 39.4183 20.4183 43 16 43H8C3.58172 43 0 39.4183 0 35C0 30.5817 3.58172 27 8 27H16C20.4183 27 24 30.5817 24 35Z"
        fill="#7C4DFF"
      />
      <path
        d="M64 35C64 39.4183 60.4183 43 56 43H35C30.5817 43 27 39.4183 27 35C27 30.5817 30.5817 27 35 27H56C60.4183 27 64 30.5817 64 35Z"
        fill="#6D3EF4"
      />
      <path
        d="M64 56C64 60.4183 60.4183 64 56 64H8C3.58172 64 0 60.4183 0 56C0 51.5817 3.58172 48 8 48H56C60.4183 48 64 51.5817 64 56Z"
        fill="#5B34E6"
      />
    </g>
  </g>
  <path
    d="M92 22.6V47H85.84V17.8H101.84C105.6 17.8 108.493 18.72 110.52 20.56C112.573 22.3733 113.6 24.8533 113.6 28C113.6 30.4 112.96 32.4 111.68 34C110.4 35.5733 108.613 36.6933 106.32 37.36L114.16 47H107.08L99.96 38H92V32.8H101.2C103.04 32.8 104.467 32.4 105.48 31.6C106.52 30.7733 107.04 29.5733 107.04 28C107.04 26.4 106.52 25.2 105.48 24.4C104.467 23.5733 103.04 23.16 101.2 23.16L92 23.2V22.6Z"
    class="logo-wordmark"
  />
  <path
    d="M131.237 47.64C128.25 47.64 125.783 46.7333 123.837 44.92C121.89 43.08 120.917 40.6 120.917 37.48V17.8H127.077V25H138.957V30.16H127.077V37.12C127.077 38.72 127.49 39.9467 128.317 40.8C129.143 41.6267 130.33 42.04 131.877 42.04H138.957V47.2H131.237V47.64Z"
    class="logo-wordmark"
  />
  <path
    d="M157.387 47.64C154.627 47.64 152.2 47.0533 150.107 45.88C148.04 44.7067 146.427 43.08 145.267 41C144.133 38.92 143.567 36.56 143.567 33.92C143.567 31.28 144.147 28.92 145.307 26.84C146.493 24.76 148.133 23.1333 150.227 21.96C152.32 20.7867 154.72 20.2 157.427 20.2C160.16 20.2 162.547 20.7867 164.587 21.96C166.653 23.1067 168.24 24.72 169.347 26.8C170.48 28.8533 171.047 31.2133 171.047 33.88V35.76H149.887C150.207 37.6267 151.033 39.0933 152.367 40.16C153.727 41.2 155.413 41.72 157.427 41.72C158.92 41.72 160.307 41.4533 161.587 40.92C162.867 40.36 163.933 39.5867 164.787 38.6L169.027 42.16C167.747 43.8267 166.08 45.12 164.027 46.04C162 46.9333 159.787 47.4667 157.387 47.64ZM149.927 31.56H164.787C164.493 29.7733 163.747 28.3867 162.547 27.4C161.373 26.3867 159.84 25.88 157.947 25.88C156.027 25.88 154.4 26.3733 153.067 27.36C151.76 28.3467 150.713 29.7467 149.927 31.56Z"
    class="logo-wordmark"
  />
  <path
    d="M187.633 47.64C184.873 47.64 182.433 47.0533 180.313 45.88C178.22 44.68 176.58 43.04 175.393 40.96C174.233 38.88 173.653 36.5333 173.653 33.92C173.653 31.28 174.233 28.92 175.393 26.84C176.58 24.76 178.22 23.1333 180.313 21.96C182.433 20.76 184.873 20.16 187.633 20.16C190.113 20.16 192.327 20.6533 194.273 21.64C196.247 22.6 197.82 23.9467 198.993 25.68L194.393 29.12C193.687 28.08 192.753 27.2667 191.593 26.68C190.46 26.0667 189.18 25.76 187.753 25.76C186.207 25.76 184.807 26.1333 183.553 26.88C182.327 27.6267 181.353 28.6533 180.633 29.96C179.913 31.24 179.553 32.56 179.553 33.92C179.553 35.28 179.913 36.6133 180.633 37.92C181.38 39.2267 182.367 40.2533 183.593 41C184.847 41.7467 186.247 42.12 187.793 42.12C189.193 42.12 190.46 41.8267 191.593 41.24C192.753 40.6267 193.687 39.8 194.393 38.76L198.993 42.24C197.847 43.9467 196.287 45.2933 194.313 46.28C192.367 47.16 190.14 47.6133 187.633 47.64Z"
    class="logo-wordmark"
  />
  <path
    d="M209.668 47.64C206.801 47.64 204.495 46.9867 202.748 45.68C201.001 44.3467 200.128 42.4667 200.128 40.04C200.128 37.7733 200.941 35.9733 202.568 34.64C204.195 33.3067 206.515 32.64 209.528 32.64H218.328V32.04C218.328 30.28 217.808 28.9467 216.768 28.04C215.755 27.1333 214.261 26.68 212.288 26.68C210.821 26.68 209.421 26.8933 208.088 27.32C206.781 27.72 205.501 28.3333 204.248 29.16L201.808 24.76C203.328 23.7467 205.061 22.9733 207.008 22.44C208.955 21.88 210.981 21.6 213.088 21.6C217.088 21.6 220.128 22.56 222.208 24.48C224.315 26.3733 225.368 29.2533 225.368 33.12V47H219.328V44.12C218.621 45.16 217.621 45.96 216.328 46.52C215.061 47.08 213.508 47.4533 211.668 47.64H209.668ZM210.948 43.08C212.441 43.08 213.768 42.7867 214.928 42.2C216.088 41.5867 216.995 40.7333 217.648 39.64C218.328 38.52 218.668 37.2667 218.668 35.88V35.16H210.468C208.201 35.16 206.641 35.4933 205.788 36.16C204.935 36.8 204.508 37.72 204.508 38.92C204.508 40.1467 204.975 41.1067 205.908 41.8C206.868 42.4933 208.215 42.92 209.948 43.08H210.948Z"
    class="logo-wordmark"
  />
  <path
    d="M230.992 47V17.8H237.152V47H230.992Z"
    class="logo-wordmark"
  />
  <defs>
    <clipPath id="clip0">
      <rect width="64" height="64" rx="20" fill="white" />
    </clipPath>
  </defs>
</svg>
