<svg
  width="64"
  height="64"
  viewBox="0 0 64 64"
  fill="none"
  xmlns="http://www.w3.org/2000/svg"
>
  <title>React Principles Favicon</title>
  <style>
    .favicon-bg {
      fill: #f3f0ff;
      stroke: #ddd6fe;
    }
    .mark-top {
      fill: #a77bff;
    }
    .mark-left {
      fill: #7c4dff;
    }
    .mark-right {
      fill: #6d3ef4;
    }
    .mark-bottom {
      fill: #5b34e6;
    }
    @media (prefers-color-scheme: dark) {
      .favicon-bg {
        fill: #111827;
        stroke: #312e81;
      }
      .mark-top {
        fill: #b794ff;
      }
      .mark-left {
        fill: #8e63ff;
      }
      .mark-right {
        fill: #7b52ff;
      }
      .mark-bottom {
        fill: #6e49f5;
      }
    }
  </style>
  <rect
    x="1"
    y="1"
    width="62"
    height="62"
    rx="19"
    class="favicon-bg"
    stroke-width="2"
  />
  <g transform="translate(10 7.9375) scale(0.6875)">
    <path
      d="M57 14C57 18.4183 53.4183 22 49 22H19C14.5817 22 11 18.4183 11 14C11 9.58172 14.5817 6 19 6H49C53.4183 6 57 9.58172 57 14Z"
      class="mark-top"
    />
    <path
      d="M24 35C24 39.4183 20.4183 43 16 43H8C3.58172 43 0 39.4183 0 35C0 30.5817 3.58172 27 8 27H16C20.4183 27 24 30.5817 24 35Z"
      class="mark-left"
    />
    <path
      d="M64 35C64 39.4183 60.4183 43 56 43H35C30.5817 43 27 39.4183 27 35C27 30.5817 30.5817 27 35 27H56C60.4183 27 64 30.5817 64 35Z"
      class="mark-right"
    />
    <path
      d="M64 56C64 60.4183 60.4183 64 56 64H8C3.58172 64 0 60.4183 0 56C0 51.5817 3.58172 48 8 48H56C60.4183 48 64 51.5817 64 56Z"
      class="mark-bottom"
    />
  </g>
</svg>
